<svg xmlns="http://www.w3.org/2000/svg" width="512" height="512" viewBox="0 0 512 512" version="1.1">
	<path d="M 231.511 1.062 C 146.671 9.878, 73.782 57.842, 31.672 132.564 C 28.552 138.099, 26 143.161, 26 143.814 C 26 144.725, 79.251 145, 256 145 C 422.645 145, 486 144.697, 486 143.900 C 486 143.295, 483.541 138.418, 480.535 133.063 C 440.106 61.029, 372.734 14.402, 291.804 2.443 C 279.273 0.592, 243.847 -0.220, 231.511 1.062 M 186.992 189.250 C 180.581 197.109, 172.614 213.055, 169.880 223.500 C 166.888 234.930, 166.877 253.220, 169.854 265.500 C 176.081 291.181, 193.511 312.775, 217.500 324.527 C 240.448 335.768, 269.553 336.197, 292.423 325.631 C 327.588 309.384, 348.521 272.578, 343.951 235.029 C 341.968 218.730, 336.131 204.022, 326.633 191.389 C 319.048 181.299, 320.425 181.112, 307.521 193.979 L 296.164 205.303 300.010 210.402 C 320.317 237.328, 313.890 273.656, 285.542 292.176 C 268.359 303.401, 243.641 303.401, 226.458 292.176 C 198.182 273.704, 191.708 237.260, 211.941 210.461 L 215.836 205.303 204.652 194.152 C 198.501 188.018, 193.159 183, 192.780 183 C 192.401 183, 189.796 185.813, 186.992 189.250 M 26 367.591 C 26 369.197, 35.781 386.803, 41.809 396.048 C 51.804 411.376, 63.046 424.829, 78.131 439.515 C 117.469 477.811, 164.717 501.007, 221 509.654 C 237.112 512.130, 274.894 512.129, 291 509.653 C 319.139 505.327, 342.899 498.082, 366.558 486.614 C 393.582 473.513, 412.690 460.141, 433.856 439.515 C 449.047 424.711, 458.574 413.373, 469.224 397.421 C 475.605 387.863, 486 369.380, 486 367.591 C 486 367.266, 382.500 367, 256 367 C 129.500 367, 26 367.266, 26 367.591" stroke="none" fill="black" fill-rule="evenodd"/>
</svg>